<svg width="100" height="100" viewBox="0 0 100 100" xmlns="http://www.w3.org/2000/svg">
  <defs>
    <pattern id="honeycomb" width="56" height="100" patternUnits="userSpaceOnUse">
      <path fill="none" stroke="#FFA00020" stroke-width="1" d="M28 66L0 50L0 16L28 0L56 16L56 50L28 66Z" />
      <path fill="none" stroke="#FFA00020" stroke-width="1" d="M28 166L0 150L0 116L28 100L56 116L56 150L28 166Z" />
      <path fill="none" stroke="#FFA00020" stroke-width="1" d="M84 66L56 50L56 16L84 0L112 16L112 50L84 66Z" />
      <path fill="none" stroke="#FFA00020" stroke-width="1" d="M84 166L56 150L56 116L84 100L112 116L112 150L84 166Z" />
    </pattern>
  </defs>
  <rect width="100%" height="100%" fill="url(#honeycomb)" />
</svg>