<svg width="100" height="100" viewBox="0 0 100 100" fill="none" xmlns="http://www.w3.org/2000/svg">
  <path d="M50 13.4L25.88 27.7L25.88 56.3L50 70.6L74.12 56.3L74.12 27.7L50 13.4Z" fill="#FFC107" stroke="#795548" stroke-width="2"/>
  <path d="M50 42L36.7 50.3L36.7 66.9L50 75.2L63.3 66.9L63.3 50.3L50 42Z" fill="#FFEAA7" stroke="#795548" stroke-width="2"/>
  <path d="M50 5L36.7 13.3L36.7 29.9L50 38.2L63.3 29.9L63.3 13.3L50 5Z" fill="#FFEAA7" stroke="#795548" stroke-width="2"/>
  <path d="M77.5 42L64.2 50.3L64.2 66.9L77.5 75.2L90.8 66.9L90.8 50.3L77.5 42Z" fill="#FFEAA7" stroke="#795548" stroke-width="2"/>
  <path d="M22.5 42L9.2 50.3L9.2 66.9L22.5 75.2L35.8 66.9L35.8 50.3L22.5 42Z" fill="#FFEAA7" stroke="#795548" stroke-width="2"/>
  <path d="M77.5 13L64.2 21.3L64.2 37.9L77.5 46.2L90.8 37.9L90.8 21.3L77.5 13Z" fill="#FFEAA7" stroke="#795548" stroke-width="2"/>
  <path d="M22.5 13L9.2 21.3L9.2 37.9L22.5 46.2L35.8 37.9L35.8 21.3L22.5 13Z" fill="#FFEAA7" stroke="#795548" stroke-width="2"/>
  <path d="M50 75L36.7 83.3L36.7 89.9L50 98.2L63.3 89.9L63.3 83.3L50 75Z" fill="#FFEAA7" stroke="#795548" stroke-width="2"/>
</svg>